<?xml version="1.0" encoding="UTF-8"?>
<svg version="1.1" viewBox="0 0 1600 1600" width="1280" height="1280" xmlns="http://www.w3.org/2000/svg">
<path transform="translate(0)" d="m0 0h1600v1600h-1600v-1600z" fill="#000002"/>
<path transform="translate(543,496)" d="m0 0c9.07-0.0926 18.1-0.164 27.2-0.207 4.21-0.0209 8.43-0.0492 12.6-0.0945 4.07-0.0434 8.13-0.0674 12.2-0.0778 1.55-0.0074 3.1-0.0218 4.66-0.0434 2.17-0.029 4.34-0.033 6.51-0.0312 1.24-0.00888 2.47-0.0178 3.75-0.0269 3.02 0.481 3.02 0.481 4.88 2.36 1.3 2.41 2.28 4.79 3.2 7.37 2.43 6.52 5.06 13 7.75 19.4 0.435 1.04 0.87 2.08 1.32 3.15 2 4.77 4 9.53 6.01 14.3 3.3 7.8 6.55 15.6 9.67 23.5 3.55 8.94 7.28 17.8 11 26.7 4.1 9.65 8.08 19.3 12 29 1.17 2.88 2.35 5.76 3.53 8.64 0.401 0.978 0.801 1.96 1.21 2.96 0.758 1.85 1.52 3.7 2.27 5.55 2.73 6.68 5.43 13.4 8.08 20.1 2.32 5.84 4.76 11.6 7.26 17.4 3.56 8.24 6.96 16.5 10.2 24.9 0.463 1.18 0.463 1.18 0.935 2.39 0.267 0.694 0.535 1.39 0.81 2.1 0.795 1.93 0.795 1.93 2.82 3.73 4.83 0.94 9.52 1.13 14.4 1.14 0.714 0.00353 1.43 0.00705 2.16 0.0107 2.38 0.0106 4.75 0.0144 7.13 0.0181 1.71 0.00631 3.42 0.0131 5.13 0.0203 3.67 0.0146 7.35 0.0264 11 0.0359 5.81 0.0155 11.6 0.0394 17.4 0.0649 16.5 0.0711 33 0.131 49.5 0.182 9.12 0.0283 18.2 0.0636 27.4 0.107 5.78 0.0268 11.6 0.0447 17.3 0.056 3.59 0.00911 7.17 0.0265 10.8 0.0462 1.67 0.00749 3.33 0.0116 5 0.012 2.27 0.00108 4.54 0.0143 6.81 0.0306 1.27 0.00423 2.54 0.00846 3.85 0.0128 3.07 0.259 3.07 0.259 6.07 2.26-0.329 0.683-0.657 1.37-0.996 2.07-3.28 6.96-6.3 14-9.19 21.1-3.53 8.69-7.11 17.4-10.8 26-0.473 1.13-0.945 2.26-1.43 3.42-0.444 1.05-0.888 2.1-1.34 3.18-0.393 0.934-0.786 1.87-1.19 2.83-1.09 2.38-1.09 2.38-3.09 5.38-2.21 0.385-2.21 0.385-5.02 0.399-1.59 0.0188-1.59 0.0188-3.22 0.038-1.17-0.00144-2.34-0.00287-3.55-0.00435-1.23 0.0102-2.46 0.0204-3.72 0.0309-3.38 0.0251-6.75 0.0369-10.1 0.0429-3.53 0.00936-7.05 0.0356-10.6 0.06-6.68 0.0437-13.4 0.0722-20 0.0953-7.6 0.027-15.2 0.0709-22.8 0.116-15.6 0.0929-31.3 0.165-46.9 0.222-1.32 3.96-0.32 5.19 1.35 8.96 0.522 1.19 1.04 2.39 1.58 3.62 0.563 1.26 1.13 2.53 1.69 3.79 1.08 2.44 2.15 4.89 3.23 7.34 0.401 0.91 0.401 0.91 0.809 1.84 1.78 4.08 3.42 8.2 4.99 12.4 1.57 4.16 3.28 8.1 5.33 12 2.23 4.49 4.05 9.17 5.96 13.8 0.417 1.01 0.834 2.02 1.26 3.05 1.69 4.08 3.37 8.16 5.05 12.2 2.4 5.81 4.91 11.5 7.53 17.3 2 4.44 3.86 8.94 5.71 13.4 0.872 2.1 1.74 4.2 2.62 6.3 0.462 1.11 0.925 2.23 1.4 3.38 2.69 6.48 5.4 13 8.11 19.4 0.278 0.664 0.556 1.33 0.842 2.01 3.57 8.52 7.18 17 11 25.4 2.34 5.17 4.44 10.4 6.53 15.7 5.58 13.9 11.3 27.6 18 41h2c0.231-0.594 0.461-1.19 0.699-1.8 1.74-4.43 3.55-8.81 5.55-13.1 2.38-5.17 4.61-10.4 6.81-15.6 0.328-0.779 0.657-1.56 0.995-2.36 1.65-3.94 3.27-7.88 4.84-11.8 2.44-6.13 5.02-12.2 7.6-18.3 0.473-1.12 0.946-2.24 1.43-3.39 2.32-5.47 4.66-10.9 7.09-16.3 1.87-4.2 3.67-8.42 5.48-12.6l1.14-2.66c2.18-5.08 4.28-10.2 6.32-15.3 1.92-4.78 3.96-9.52 5.97-14.3 3.06-7.22 6.12-14.4 9.14-21.7 0.258-0.617 0.516-1.23 0.781-1.87 0.528-1.26 1.06-2.52 1.58-3.79 4.57-10.9 9.19-21.8 13.9-32.7 6.66-15.5 13.2-31 19.6-46.6 4.87-11.8 9.8-23.5 14.8-35.3 1.62-3.81 3.22-7.63 4.81-11.5 2.29-5.5 4.63-11 6.98-16.5 2.43-5.65 4.85-11.3 7.19-17 1.63-3.95 3.38-7.82 5.19-11.7 2.72-5.82 5.17-11.7 7.59-17.7 1.94-4.75 3.99-9.42 6.15-14.1 2.25-5.02 4.34-10.1 6.44-15.2 1.86-4.47 3.87-8.8 6.06-13.1 1.16-2.35 2.06-4.76 2.94-7.22 2.99-7.96 6.47-15.7 9.93-23.5 2.46-5.53 4.83-11.1 7.05-16.7 1.66-4.15 3.44-8.25 5.21-12.3 2.57-5.97 5.13-11.9 7.63-17.9 3.47-8.32 7.04-16.6 10.7-24.8 0.804-1.82 1.6-3.65 2.4-5.48 0.494-1.11 0.988-2.23 1.5-3.38 0.441-1 0.883-2 1.34-3.03 1.2-2.4 1.2-2.4 3.2-4.4 2.8-0.254 2.8-0.254 6.42-0.259 0.659-0.0035 1.32-0.00701 2-0.0106 2.18-0.00882 4.36-0.00297 6.55 0.00378 1.51-0.00135 3.03-0.00329 4.54-0.0058 3.18-0.00295 6.35 0.00135 9.53 0.0107 4.07 0.0114 8.15 0.00484 12.2-0.00714 3.13-0.00723 6.26-0.00493 9.39 2.56e-4 1.5 0.00133 3-3.06e-4 4.51-0.00496 2.1-0.00508 4.2 0.00266 6.3 0.0138 1.79 0.00239 1.79 0.00239 3.62 0.00482 2.93 0.254 2.93 0.254 5.93 2.25-3.85 9.38-7.89 18.7-12 28-6.9 15.8-13.7 31.6-20.5 47.4-2.69 6.3-5.39 12.6-8.09 18.9-0.965 2.25-1.93 4.5-2.89 6.75-2.93 6.85-5.87 13.7-8.81 20.5-5.24 12.2-10.4 24.4-15.6 36.7-2.42 5.72-4.85 11.4-7.3 17.1-0.395 0.918-0.395 0.918-0.798 1.85-0.262 0.61-0.525 1.22-0.795 1.85-4.56 10.6-9.06 21.2-13.3 32 13.7 0.847 27.4 1.13 41.2 1.08 3.4-0.013 6.8-0.0193 10.2-0.0241 7.2-0.0113 14.4-0.0306 21.6-0.051 8.39-0.0237 16.8-0.044 25.2-0.0559 3.33-0.00642 6.66-0.0189 9.98-0.0317 22-0.0543 22-0.0543 28.9 1.09 15.6 15.6 1 44 1 66l-167 1c-3.31 6.58-3.31 6.58-6.22 13.3-0.375 0.926-0.75 1.85-1.14 2.81l-1.14 2.85c-2.41 5.98-4.85 11.9-7.49 17.8-1.87 4.19-3.65 8.42-5.45 12.6-2.38 5.57-4.76 11.1-7.31 16.6-1.63 3.54-3.07 7.1-4.44 10.8-2.22 5.86-4.67 11.6-7.19 17.3-4.52 10.3-8.87 20.7-13.2 31.1-4.31 10.4-8.63 20.7-13.1 31.1-3.34 7.75-6.6 15.5-9.85 23.3-3.97 9.49-7.97 19-12 28.4-3.71 8.62-7.32 17.3-10.9 25.9-3.11 7.45-6.25 14.9-9.52 22.3-1.89 4.28-3.67 8.56-5.31 12.9-2.6 6.9-5.56 13.6-8.53 20.4-3.39 7.75-6.71 15.5-10 23.3-0.5 1.18-1 2.37-1.52 3.59-1.22 2.88-2.43 5.76-3.65 8.64-7.9 0.0463-15.8 0.0819-23.7 0.104-3.67 0.0104-7.34 0.0246-11 0.0473-3.54 0.0217-7.08 0.0337-10.6 0.0389-2.01 0.0055-4.02 0.0211-6.03 0.0368-1.22 1.51e-4 -2.44 3.02e-4 -3.7 4.58e-4 -1.08 0.00444-2.15 0.00888-3.26 0.0135-2.68-0.241-2.68-0.241-5.68-2.24-1.46-2.91-1.46-2.91-2.94-6.5-0.725-1.75-0.725-1.75-1.46-3.53-1.15-2.84-2.28-5.68-3.41-8.52-2.42-6.07-4.9-12.1-7.39-18.2-0.529-1.28-1.06-2.57-1.58-3.85-2.58-6.29-5.16-12.5-8.28-18.6-1.86-3.76-3.36-7.67-4.93-11.6-0.796-1.96-1.59-3.92-2.39-5.89-0.633-1.56-0.633-1.56-1.28-3.15-6.74-16.6-13.6-33.1-20.8-49.5-4.47-10.3-8.82-20.6-13.1-30.9-2.49-6.01-5.02-12-7.56-18-3.25-7.66-6.48-15.3-9.71-23-6.04-14.4-12.1-28.7-18.2-43-4.69-10.9-9.3-21.9-13.9-32.8-0.476-1.14-0.476-1.14-0.962-2.3-0.919-2.2-1.84-4.4-2.75-6.6-0.294-0.706-0.588-1.41-0.89-2.14-1.72-4.17-3.34-8.36-4.9-12.6-1.94-5.12-4.24-9.96-6.72-14.8-0.555-1.1-0.555-1.1-1.12-2.22-0.904-1.79-1.81-3.58-2.72-5.37-1.13-0.00423-2.26-0.00846-3.43-0.0128-27.5-0.103-55-0.212-82.5-0.327-13.3-0.0553-26.6-0.109-39.9-0.158-11.6-0.0428-23.2-0.0891-34.8-0.14-6.14-0.0266-12.3-0.0515-18.4-0.0722-5.77-0.0195-11.5-0.0437-17.3-0.0714-2.12-0.00938-4.25-0.0171-6.37-0.0229-2.89-0.00824-5.78-0.0225-8.67-0.0384-0.85-9.78e-4 -1.7-0.00196-2.58-0.00296-5.79-0.0411-5.79-0.0411-8.02-1.16-0.0463-8.18-0.0819-16.4-0.104-24.5-0.0104-3.8-0.0246-7.6-0.0473-11.4-0.0217-3.66-0.0337-7.33-0.0389-11-0.0037-1.4-0.0109-2.8-0.0217-4.2-0.0145-1.96-0.0154-3.91-0.0156-5.87-0.00444-1.11-0.00888-2.23-0.0135-3.38 0.241-2.63 0.241-2.63 2.24-4.63 2.55-0.205 4.98-0.285 7.53-0.278 1.18-0.00869 1.18-0.00869 2.38-0.0176 2.65-0.0171 5.29-0.0199 7.94-0.0228 1.89-0.00929 3.78-0.0195 5.68-0.0304 5.15-0.0274 10.3-0.0425 15.4-0.0554 5.38-0.0156 10.8-0.0424 16.1-0.068 10.2-0.0469 20.4-0.0836 30.6-0.117 11.6-0.0382 23.2-0.0876 34.8-0.138 23.9-0.103 47.7-0.193 71.6-0.273-0.288-0.69-0.576-1.38-0.873-2.09-1.32-3.16-2.63-6.31-3.95-9.47-0.453-1.09-0.907-2.17-1.37-3.29-2.99-7.16-5.9-14.3-8.68-21.6-2.19-5.7-4.44-11.3-6.95-16.9-2.79-6.31-5.4-12.7-8.05-19.1-0.664-1.6-1.33-3.19-1.99-4.79-5.09-12.2-10.2-24.5-15.2-36.8-3.04-7.41-6.11-14.8-9.22-22.2-3.45-8.2-6.8-16.4-9.59-24.8-1.11-2.93-2.48-5.63-3.9-8.42-2.92-6.12-5.33-12.5-7.86-18.8-0.591-1.46-1.18-2.93-1.77-4.39-1.54-3.81-3.07-7.61-4.6-11.4-0.39-0.871-0.78-1.74-1.18-2.64-0.902-2.6-0.878-4.63-0.819-7.36z" fill="#C246FB"/>
</svg>
